<svg width="184" height="138" viewBox="0 0 184 138" fill="none" xmlns="http://www.w3.org/2000/svg">
<path d="M80.0862 119.409C58.6932 109.499 45.1508 93.2147 49.8384 83.0375C54.526 72.8604 75.6685 72.6442 97.0614 82.5546C118.454 92.465 131.997 108.749 127.309 118.926C122.622 129.104 101.479 129.32 80.0862 119.409Z" fill="#606063"/>
<path d="M123.174 122.209L139 110.584L49 69.209L50.5743 88.8338L123.174 122.209Z" fill="#606063"/>
<path d="M52 73.0526L8.77985 51.3682C7.95932 50.9561 6.98848 51.3733 6.64899 52.2829L4.29048 58.6043C3.51082 60.6942 4.35032 63.083 6.21364 64.0768L51.4535 88.209L52 73.0526Z" fill="#606063"/>
<path d="M85.5911 107.456C59.81 95.5132 43.3266 76.2432 48.7743 64.4157C54.2221 52.5882 79.538 52.682 105.319 64.6253C131.1 76.5686 147.584 95.8386 142.136 107.666C136.688 119.494 111.372 119.4 85.5911 107.456Z" fill="url(#paint0_linear)"/>
<path d="M127.983 114.209C128.524 103.831 115.767 89.7059 96.8813 80.7015C77.9954 71.6974 59.3051 70.8306 52 77.9831" stroke="#606063" stroke-width="7"/>
<path d="M50.9199 66.7802C48.5324 71.6192 50.8148 78.3971 57.5047 85.6989C64.105 92.9023 74.6477 100.19 87.5874 105.786C100.528 111.383 113.289 114.174 123.426 114.209C133.701 114.244 140.692 111.477 143.08 106.638C145.468 101.798 143.186 95.0205 136.495 87.7191C129.895 80.5157 119.353 73.2276 106.413 67.6311C93.4724 62.035 80.7112 59.2444 70.574 59.2093C60.2991 59.1738 53.3075 61.9408 50.9199 66.7802Z" stroke="#979797" stroke-width="7"/>
<path d="M48 69.209L49 86.209" stroke="url(#paint1_linear)" stroke-width="5.96899"/>
<mask id="mask0" mask-type="alpha" maskUnits="userSpaceOnUse" x="0" y="48" width="147" height="83">
<path d="M146.248 48.8628H0V130.267H146.248V48.8628Z" fill="white"/>
<path fill-rule="evenodd" clip-rule="evenodd" d="M80.0858 119.408C61.2216 110.669 48.4619 96.9741 48.9225 86.8805C48.9358 86.5969 48.7864 86.3303 48.5322 86.205L5.54242 65.0315C3.6391 64.0939 2.78156 61.8409 3.57797 59.8698L5.98711 53.9081C6.3339 53.0498 7.32558 52.6567 8.16372 53.045L47.4992 71.2675C47.6647 71.344 47.8514 71.2135 47.837 71.0311C47.7908 70.6408 47.7599 70.2545 47.7446 69.8723L47.7053 69.3745C47.7045 69.3664 47.7125 69.3612 47.7197 69.3644C47.7261 69.3677 47.7342 69.3624 47.7342 69.3552C47.731 67.6048 48.0687 65.947 48.7747 64.4145C54.2225 52.587 79.5384 52.6809 105.32 64.6239C131.101 76.5674 147.584 95.8375 142.137 107.665C141.431 109.197 140.391 110.53 139.06 111.662C139.054 111.667 139.056 111.676 139.063 111.68C139.07 111.683 139.071 111.693 139.064 111.697L138.448 112.154C138.385 112.202 138.321 112.249 138.257 112.296C138.235 112.312 138.213 112.328 138.192 112.343L124.959 122.139C117.578 129.01 98.929 128.137 80.0858 119.408Z" fill="black"/>
</mask>
<g mask="url(#mask0)">
<path d="M80.8746 119.899L79.6917 122.508L80.8746 119.899ZM6.0894 64.4583L7.33268 61.8778L6.0894 64.4583ZM4.11858 59.1955L6.73243 60.2755L4.11858 59.1955ZM6.53553 53.1172L9.14943 54.1968L6.53553 53.1172ZM8.71921 52.2372L7.53652 54.8469L8.71921 52.2372ZM48.4285 69.3938L51.2469 69.2805L51.2444 69.2226L51.24 69.1651L48.4285 69.3938ZM49.462 63.8292L52.022 65.0344L49.462 63.8292ZM106.19 64.0427L105.008 66.6524L106.19 64.0427ZM143.127 107.926L145.687 109.132L143.127 107.926ZM139.426 112.503L137.751 110.19L137.738 110.2L137.726 110.209L139.426 112.503ZM139.234 112.648L140.896 114.97H140.897L139.234 112.648ZM139.169 112.696L137.519 110.365L137.507 110.374L137.494 110.383L139.169 112.696ZM125.893 122.683L124.219 120.37L124.091 120.466L123.975 120.576L125.893 122.683ZM140.045 112.037L138.37 109.724L140.045 112.037ZM140.041 112.001L141.865 114.193L140.041 112.001ZM48.389 68.8862L51.2001 68.6575L48.389 68.8862ZM48.1824 70.8163L49.3649 68.2066L48.1824 70.8163ZM48.4181 68.8665L45.5977 68.8715L48.4181 68.8665ZM49.6103 86.7347L52.4278 86.8662L49.6103 86.7347ZM46.7931 86.6033C46.5087 92.926 50.2368 99.7282 55.9303 105.818C61.7216 112.011 69.9607 117.927 79.6917 122.508L82.0571 117.289C72.8628 112.96 65.2386 107.439 60.0137 101.851C54.6909 96.1589 52.2493 90.8342 52.4278 86.8662L46.7931 86.6033ZM4.84611 67.0384L47.9757 88.6266L50.462 83.466L7.33268 61.8778L4.84611 67.0384ZM1.50472 58.116C0.150056 61.523 1.60866 65.4176 4.84615 67.0384L7.33268 61.8778C6.75113 61.5871 6.48912 60.8874 6.73243 60.2755L1.50472 58.116ZM3.92168 52.0377L1.50472 58.116L6.73243 60.2755L9.14943 54.1968L3.92168 52.0377ZM9.90194 49.6276C7.59905 48.5435 4.87443 49.6416 3.92168 52.0377L9.14943 54.1968C8.89246 54.8432 8.15764 55.1392 7.53652 54.8469L9.90194 49.6276ZM49.3649 68.2066L9.90194 49.6276L7.53652 54.8469L46.9994 73.4255L49.3649 68.2066ZM45.6106 69.5071C45.6287 69.9753 45.6658 70.4446 45.7206 70.9152L51.3218 70.2352C51.2839 69.91 51.2589 69.5917 51.2469 69.2805L45.6106 69.5071ZM45.5776 69.115L45.6174 69.6225L51.24 69.1651L51.2001 68.6575L45.5776 69.115ZM46.9015 62.6236C46.0071 64.5971 45.5937 66.7049 45.5977 68.8715L51.2384 68.8612C51.236 67.4584 51.5003 66.1863 52.022 65.0344L46.9015 62.6236ZM107.373 61.4335C94.1592 55.2123 80.9427 52.0134 70.1867 51.9732C59.7039 51.9333 50.379 54.9503 46.9015 62.6236L52.022 65.0344C54.01 60.6488 60.1173 57.684 70.1657 57.7221C79.9415 57.7587 92.3566 60.6964 105.008 66.6524L107.373 61.4335ZM145.687 109.132C149.165 101.458 145.374 92.2661 138.548 84.1572C131.545 75.8367 120.587 67.6543 107.373 61.4335L105.008 66.6524C117.659 72.6083 127.902 80.3382 134.267 87.9002C140.81 95.6736 142.554 102.335 140.566 106.721L145.687 109.132ZM141.865 114.193C143.486 112.792 144.793 111.105 145.687 109.132L140.566 106.721C140.044 107.872 139.265 108.902 138.216 109.809L141.865 114.193ZM141.101 114.816L141.72 114.35L138.37 109.724L137.751 110.19L141.101 114.816ZM140.897 114.97C140.973 114.913 141.05 114.855 141.125 114.797L137.726 110.209C137.675 110.248 137.624 110.287 137.572 110.326L140.897 114.97ZM137.572 110.326C137.554 110.339 137.536 110.352 137.519 110.365L140.819 115.027C140.846 115.007 140.872 114.988 140.896 114.97L137.572 110.326ZM127.568 124.995L140.844 115.009L137.494 110.383L124.219 120.37L127.568 124.995ZM79.6917 122.508C89.4122 127.084 99.1621 129.642 107.537 130.125C115.772 130.6 123.265 129.091 127.812 124.79L123.975 120.576C121.117 123.28 115.554 124.829 107.856 124.385C100.299 123.95 91.2414 121.613 82.0571 117.289L79.6917 122.508ZM138.861 114.629C136.921 113.716 136.651 111.018 138.37 109.724L141.72 114.35C143.451 113.047 143.18 110.329 141.226 109.41L138.861 114.629ZM138.216 109.809C136.649 111.165 136.971 113.739 138.861 114.629L141.226 109.41C143.102 110.293 143.421 112.848 141.865 114.193L138.216 109.809ZM51.2001 68.6575C51.3714 70.8409 49.1719 72.4042 47.2206 71.4856L49.5861 66.2664C47.6207 65.3412 45.4051 66.9156 45.5776 69.115L51.2001 68.6575ZM46.9994 73.4255C49.1239 74.4258 51.5188 72.7241 51.3327 70.3465L45.7097 70.8039C45.5526 68.7984 47.5728 67.3628 49.3649 68.2066L46.9994 73.4255ZM47.2206 71.4856C49.1106 72.375 51.242 70.9555 51.2384 68.8612L45.5977 68.8715C45.5941 66.7924 47.7097 65.3831 49.5861 66.2664L47.2206 71.4856ZM52.4278 86.8662C52.4894 85.4934 51.7751 84.1235 50.462 83.466L47.9757 88.6266C47.1723 88.2241 46.7573 87.3979 46.7931 86.6033L52.4278 86.8662Z" fill="url(#paint2_linear)"/>
<path d="M47.8679 70.1358L45.4707 70.2373L46.2075 87.7374L48.6047 87.6359L47.8679 70.1358Z" fill="url(#paint3_linear)"/>
</g>
<path d="M73.0822 58.1384L73.7133 40.1631C73.7133 40.1631 75.4689 36.1151 77.4212 34.1714C79.262 32.3387 80.2034 31.6072 83.0488 30.613C85.8941 29.6187 88.2671 29.5847 91.648 29.6187C96.1018 29.6634 99.3005 30.1943 102.929 31.2409C106.558 32.2875 113.749 34.5217 119.681 38.1746C126.508 42.3794 130.565 45.3169 134.644 52.199C136.614 55.5235 137.651 57.5657 138.378 61.3567C139.588 67.6624 139.535 74.1251 138.378 79.2796C137.614 82.6816 136.268 83.7031 134.013 86.3703C131.758 89.0375 122.652 94.0889 118.077 94.7169C115.079 95.1282 104.06 96.1821 97.8804 94.0889C94.9089 93.0826 89.5994 89.1888 86.5463 84.1725C84.8107 81.3205 83.1576 76.0476 80.5768 71.0377C77.9098 65.8594 73.0822 58.1384 73.0822 58.1384Z" fill="#F8ECE1"/>
<path d="M88.1699 63.7297C86.0135 61.1133 80.4123 54.1011 80.4123 54.1011V56.2204C80.4123 57.9211 81.5809 59.5367 82.2268 60.6161C84.199 63.9129 85.435 65.8491 86.0135 67.0527C86.5921 68.2563 89.4059 75.4516 89.4059 75.4516C89.4059 75.4516 89.7214 72.5211 89.9055 70.271C90.0896 68.0208 89.6168 65.4851 88.1699 63.7297Z" fill="#691806"/>
<path d="M132.113 76.1841C132.113 76.1841 130.845 78.1462 128.458 80.0826C126.039 82.045 125.644 81.9927 122.252 83.4579C118.86 84.9231 116.309 83.6149 114.468 82.7776C112.627 81.9404 115.515 84.1126 116.861 84.897C118.198 85.6762 118.334 86.4407 118.334 86.4407C118.334 86.4407 118.465 86.7547 117.965 87.278C117.466 87.8013 116.861 88.2461 116.861 88.2461C116.861 88.2461 117.282 89.2927 121.174 87.6966C126.303 85.5935 128.816 83.2486 129.484 82.3852C131.831 79.35 132.113 76.1841 132.113 76.1841Z" fill="#691806"/>
<path fill-rule="evenodd" clip-rule="evenodd" d="M73.7133 40.1631C73.0822 41.7775 72.0503 55.3309 73.0822 58.1384C73.6234 59.61 74.9235 61.6604 76.4224 64.0241C77.7836 66.1698 79.3077 68.5738 80.5768 71.0377C81.8375 73.4853 82.8773 75.9957 83.813 78.2559C84.7928 80.6219 85.6585 82.714 86.5463 84.1725C89.5994 89.1888 94.9089 93.0826 97.8804 94.0889C104.06 96.1821 115.079 95.1282 118.077 94.7169C122.652 94.0889 131.758 89.0375 134.013 86.3703C134.39 85.9234 134.743 85.5231 135.071 85.1494C136.703 83.2938 137.742 82.1117 138.378 79.2796C139.535 74.1251 139.588 67.6624 138.378 61.3567C137.651 57.5657 136.614 55.5235 134.644 52.199C130.565 45.3169 126.508 42.3794 119.681 38.1746C113.749 34.5217 106.558 32.2875 102.929 31.2409C99.3005 30.1943 96.1019 29.6634 91.648 29.6187C88.2672 29.5847 85.8941 29.6187 83.0488 30.613C80.2034 31.6072 79.262 32.3387 77.4212 34.1714C75.4689 36.1151 74.3444 38.5488 73.7133 40.1631ZM81.8128 37.6513C80.6031 38.6728 79.6301 41.0736 79.6301 44.4542C79.6301 49.358 83.8698 54.1219 86.521 57.1009C87.3068 57.9842 87.9537 58.7107 88.3082 59.2373C89.8597 61.5398 91.3325 64.8889 91.6744 66.5373C91.9479 67.856 92.3581 70.0696 92.3581 70.0696C92.3581 70.0696 90.3173 65.4384 90.0438 64.9151C88.1567 61.3044 83.1803 56.4377 83.1803 56.4377L79.6301 52.0158C79.6301 52.0158 78.8875 55.9065 79.6301 57.5889C80.0593 58.5605 80.9303 60.0731 81.9248 61.7998C82.6517 63.0628 83.4453 64.4405 84.1795 65.8047C85.7526 68.726 86.8871 71.7236 87.9358 74.4929C89.2985 78.0928 90.515 81.3069 92.3581 83.466C95.1334 86.7172 98.0866 88.1092 102.246 89.1438C106.979 90.3212 118.05 89.6671 122.968 87.6524C127.821 85.6644 131.212 82.4377 132.139 78.827C133.066 75.2162 133.382 72.5552 133.382 72.5552C133.382 72.5552 131.146 76.9312 128.28 79.2011C125.703 81.242 123.741 82.1295 121.153 82.8119C118.558 83.4963 114.29 82.4979 114.29 82.4979C114.29 82.4979 118.807 81.8317 121.153 80.7972C123.854 79.6062 124.569 79.142 126.676 77.0818C129.798 74.0282 131.146 71.561 131.935 69.4416C132.863 66.9503 133.1 64.1456 132.461 61.566C131.539 57.8428 129.951 55.1853 127.438 52.2775C125.361 49.8728 121.208 46.7106 117.156 43.9047C112.958 40.9974 108.846 39.3574 106.769 38.5409C102.369 36.8117 96.5656 35.3433 94.1726 35.0871C90.895 34.7362 88.0773 34.898 86.9144 35.0871C84.3363 35.5065 83.1603 36.5063 82.0205 37.4754C81.9511 37.5342 81.8822 37.5929 81.8128 37.6513Z" fill="#621706"/>
<path d="M125.53 61.3227C126.242 59.6155 126.214 56.6392 126.214 56.6392C126.214 56.6392 125.178 58.7776 124.373 60.0668C123.719 61.1143 122.558 62.6571 122.558 62.6571C122.558 62.6571 120.506 58.2308 119.902 55.2002C119.495 53.1556 119.376 49.8887 119.376 49.8887C119.376 49.8887 118.807 53.1247 118.956 55.2002C119.144 57.8382 119.786 59.2646 120.718 61.7414C121.333 63.3776 121.842 64.228 122.558 65.8231C123.269 67.4059 123.949 68.1971 124.373 69.8787C124.973 72.2572 124.373 76.1582 124.373 76.1582C124.373 76.1582 120.42 79.0777 117.457 79.8736C115.501 80.399 114.326 80.3509 112.303 80.4493C110.733 80.5257 108.279 80.4493 108.279 80.4493C108.279 80.4493 108.633 78.691 109.042 77.6235C109.784 75.6863 110.343 74.5496 111.829 73.0969C112.694 72.252 114.327 71.2654 114.327 71.2654C114.327 71.2654 113.395 71.2089 112.802 71.2654C111.875 71.3537 111.418 71.9017 110.488 71.841C109.563 71.7807 108.279 70.9776 108.279 70.9776L109.62 73.0969C109.62 73.0969 107.948 74.8393 107.175 76.1582C106.382 77.5085 105.676 79.8736 105.676 79.8736C105.676 79.8736 103.152 79.308 101.679 78.5916C99.9399 77.746 98.9526 77.142 97.6551 75.7134C95.539 73.3835 95.7142 71.2059 94.6309 68.2564C93.5331 65.2669 93.6418 63.2894 92.0801 60.5116C90.7811 58.2011 87.8462 55.2002 87.8462 55.2002C87.8462 55.2002 91.3481 55.9502 93.3687 55.2002C94.2387 54.8772 95.4461 54.0489 95.4461 54.0489C95.4461 54.0489 94.5177 58.1629 95.4461 60.5116C96.0847 62.1272 96.8502 62.8843 98.0739 64.0946L98.1284 64.1485C99.199 65.2076 101.205 66.4772 101.205 66.4772C101.205 66.4772 99.2717 64.8025 98.4703 63.4159C97.7029 62.0882 97.4549 61.2123 97.208 59.7005C96.8512 57.5152 97.3352 56.2398 97.6551 54.0489C98.0058 51.647 98.9962 47.9786 98.9962 47.9786C98.9962 47.9786 100.644 47.8471 101.679 47.6385C102.692 47.4342 104.229 46.9321 104.229 46.9321C104.229 46.9321 105.988 48.2304 107.175 48.9729C108.921 50.0659 110.224 50.1694 111.829 51.4586C112.926 52.3391 114.327 54.0489 114.327 54.0489C114.327 54.0489 113.771 52.0031 112.986 50.9353C111.703 49.1895 109.954 49.3577 108.279 47.9786C107.183 47.0757 105.676 45.4407 105.676 45.4407C105.676 45.4407 106.687 44.4615 107.175 43.7138C107.765 42.8075 108.279 41.1758 108.279 41.1758L109.62 41.7514C109.62 41.7514 116.189 45.338 119.902 48.3188C123.215 50.9772 125.373 52.3529 127.686 55.9066C129.175 58.1934 130.226 59.5438 130.632 62.2385C130.963 64.4389 130.8 65.785 130.158 67.9163C129.383 70.4896 126.582 73.8034 126.582 73.8034C126.582 73.8034 126.045 70.9542 125.53 69.1722C124.951 67.1687 123.715 64.1485 123.715 64.1485C123.715 64.1485 125.026 62.5324 125.53 61.3227Z" fill="#B32D2D"/>
<path d="M96.4446 40.1814C94.7383 38.113 90.5278 36.6753 90.5278 36.6753C90.5278 36.6753 95.4271 36.7871 98.4695 37.4602C102.013 38.2442 107.174 40.7047 107.174 40.7047C107.174 40.7047 105.744 43.3152 104.229 44.3416C102.394 45.5843 98.7062 45.676 98.7062 45.676C98.7062 45.676 97.9231 41.9737 96.4446 40.1814Z" fill="#B32D2D"/>
<path d="M85.2426 45.6759C83.5596 44.7169 81.6399 42.2745 81.6399 42.2745C81.6399 42.2745 81.3359 46.1356 82.2711 48.3186C83.2556 50.6167 84.2391 52.0563 86.5049 53.1329C88.4782 54.0706 89.9787 54.2594 92.0799 53.6562C93.9497 53.1194 95.2312 52.5078 96.156 50.8042C97.0264 49.2009 96.8588 47.9221 96.4453 46.1469C96.1516 44.8864 95.7645 44.2199 95.0515 43.1379C93.6564 41.0209 92.376 40.0149 90.055 38.9777C88.1811 38.1403 85.716 37.627 84.9008 37.9311L84.8624 37.9454C84.0745 38.239 83.739 38.3643 83.4281 39.2655C83.1189 40.1636 84.5069 42.0608 85.6492 43.6219L85.716 43.7135C86.75 45.1275 88.8453 46.9318 88.8453 46.9318C88.8453 46.9318 86.5365 46.413 85.2426 45.6759Z" fill="#B32D2D"/>
<path d="M115.239 61.2025C115.012 59.5134 114.656 58.5267 113.688 57.1208C112.794 55.8222 110.111 54.3696 109.349 53.981C108.586 53.5924 104.931 53.7193 104.089 53.981C103.008 54.3173 102.238 55.7076 101.986 56.8068C101.775 57.7226 101.741 60.0774 101.986 60.8885C102.345 62.0792 102.705 62.7229 103.458 63.7144C104.716 65.3688 105.762 66.239 107.745 66.8803C109.291 67.3804 110.351 67.6331 111.9 67.1419C113.411 66.6628 114.412 66.0608 115.082 64.6301C115.65 63.4154 115.418 62.5306 115.239 61.2025Z" fill="#F8ECE1"/>
<path fill-rule="evenodd" clip-rule="evenodd" d="M113.688 57.1208C114.656 58.5267 115.012 59.5134 115.239 61.2025C115.261 61.364 115.284 61.519 115.305 61.6688C115.463 62.7507 115.581 63.5631 115.082 64.6301C114.412 66.0608 113.411 66.6628 111.9 67.1419C110.351 67.6331 109.291 67.3804 107.745 66.8803C105.762 66.239 104.716 65.3688 103.458 63.7144C102.705 62.7229 102.345 62.0792 101.986 60.8885C101.741 60.0774 101.775 57.7226 101.986 56.8068C102.238 55.7076 103.008 54.3173 104.089 53.981C104.931 53.7193 108.586 53.5924 109.349 53.981C110.111 54.3696 112.794 55.8222 113.688 57.1208ZM113.142 56.9428C114.005 57.9706 114.322 58.6919 114.525 59.9267C114.544 60.0448 114.564 60.1581 114.584 60.2677C114.724 61.0586 114.829 61.6525 114.384 62.4325C113.787 63.4784 112.895 63.9185 111.547 64.2688C110.166 64.6278 109.221 64.4431 107.843 64.0775C106.075 63.6087 105.142 62.9725 104.021 61.763C103.349 61.0382 103.028 60.5677 102.708 59.6972C102.49 59.1042 102.521 57.3827 102.708 56.7132C102.933 55.9097 103.619 54.8933 104.584 54.6474C105.334 54.4561 108.593 54.3633 109.273 54.6474C109.953 54.9315 112.345 55.9935 113.142 56.9428Z" fill="#621706"/>
<path d="M111.206 59.5086C111.118 58.972 110.979 58.6585 110.602 58.2119C110.253 57.7994 109.207 57.3379 108.91 57.2144C108.613 57.091 107.188 57.1313 106.86 57.2144C106.438 57.3213 106.138 57.7629 106.04 58.1121C105.958 58.4031 105.944 59.1511 106.04 59.4088C106.18 59.7871 106.32 59.9915 106.614 60.3065C107.104 60.8321 107.512 61.1086 108.285 61.3123C108.888 61.4712 109.301 61.5514 109.904 61.3955C110.494 61.2432 110.884 61.052 111.145 60.5975C111.367 60.2115 111.276 59.9305 111.206 59.5086Z" fill="#621706"/>
<path d="M178.184 81.472C178 82.176 177 82.176 176.816 81.472L175.821 77.6835C175.756 77.4365 175.564 77.2435 175.316 77.1788L171.528 76.1844C170.824 75.9997 170.824 75.0003 171.528 74.8156L175.316 73.8212C175.564 73.7565 175.756 73.5635 175.821 73.3165L176.816 69.528C177 68.824 178 68.824 178.184 69.528L179.179 73.3165C179.244 73.5635 179.436 73.7565 179.684 73.8212L183.472 74.8156C184.176 75.0003 184.176 75.9997 183.472 76.1844L179.684 77.1788C179.436 77.2435 179.244 77.4365 179.179 77.6835L178.184 81.472Z" fill="white"/>
<path d="M59.1845 21.472C58.9996 22.176 58.0003 22.176 57.8155 21.472L56.8213 17.6835C56.7564 17.4365 56.5635 17.2435 56.3164 17.1788L52.528 16.1844C51.824 15.9997 51.824 15.0003 52.528 14.8156L56.3164 13.8212C56.5635 13.7565 56.7564 13.5635 56.8213 13.3165L57.8155 9.52797C58.0003 8.82401 58.9996 8.82401 59.1845 9.52797L60.1787 13.3165C60.2436 13.5635 60.4365 13.7565 60.6835 13.8212L64.472 14.8156C65.176 15.0003 65.176 15.9997 64.472 16.1844L60.6835 17.1788C60.4365 17.2435 60.2436 17.4365 60.1787 17.6835L59.1845 21.472Z" fill="white"/>
<path d="M90.9739 8.63449C90.8459 9.12184 90.1541 9.12184 90.0261 8.63449L89.3378 6.01168C89.2929 5.84067 89.1594 5.70707 88.9883 5.66222L86.3656 4.97384C85.8781 4.84595 85.8781 4.15406 86.3656 4.02617L88.9883 3.33778C89.1594 3.29294 89.2929 3.15933 89.3378 2.98833L90.0261 0.365515C90.1541 -0.121838 90.8459 -0.121838 90.9739 0.365515L91.6622 2.98833C91.7071 3.15933 91.8406 3.29294 92.0117 3.33778L94.6345 4.02617C95.1218 4.15406 95.1218 4.84595 94.6345 4.97384L92.0117 5.66222C91.8406 5.70707 91.7071 5.84067 91.6622 6.01168L90.9739 8.63449Z" fill="white"/>
<defs>
<linearGradient id="paint0_linear" x1="48.7743" y1="64.4157" x2="28.9526" y2="107.204" gradientUnits="userSpaceOnUse">
<stop stop-color="#404042"/>
<stop offset="1" stop-color="#48484B"/>
</linearGradient>
<linearGradient id="paint1_linear" x1="50.9377" y1="70.9902" x2="43.6702" y2="82.9776" gradientUnits="userSpaceOnUse">
<stop stop-color="#404042"/>
<stop offset="1" stop-color="#48484B"/>
</linearGradient>
<linearGradient id="paint2_linear" x1="73.8233" y1="51.6927" x2="74.2745" y2="127.55" gradientUnits="userSpaceOnUse">
<stop stop-color="#404042"/>
<stop offset="1" stop-color="#48484B"/>
</linearGradient>
<linearGradient id="paint3_linear" x1="46.6692" y1="70.1866" x2="47.4103" y2="87.6868" gradientUnits="userSpaceOnUse">
<stop stop-color="#404042"/>
<stop offset="1" stop-color="#48484B"/>
</linearGradient>
</defs>
</svg>
