<svg width="132" height="94" viewBox="0 0 132 94" fill="none" xmlns="http://www.w3.org/2000/svg">
<mask id="mask0" mask-type="alpha" maskUnits="userSpaceOnUse" x="28" y="36" width="85" height="58">
<path d="M112.346 36H28V93.5629H112.346V36Z" fill="white"/>
<path fill-rule="evenodd" clip-rule="evenodd" d="M109.689 64.7459C109.768 64.1162 109.809 63.4798 109.809 62.8377C109.809 49.4208 92.0651 38.5439 70.1733 38.5439C48.2814 38.5439 30.5371 49.4208 30.5371 62.8377C30.5371 63.4798 30.5783 64.1162 30.6576 64.7459H30.5371V66.4419C30.5371 79.8592 48.2814 90.7357 70.1733 90.7357C92.0651 90.7357 109.809 79.8592 109.809 66.4419V64.7459H109.689Z" fill="black"/>
</mask>
<g mask="url(#mask0)">
<path d="M109.689 64.7462L107.171 64.4253L106.809 67.2904H109.689V64.7462ZM30.6572 64.7462V67.2904H33.5364L33.1749 64.4253L30.6572 64.7462ZM30.5367 64.7462V62.2019H28V64.7462H30.5367ZM109.809 64.7462H112.346V62.2019H109.809V64.7462ZM107.272 62.838C107.272 63.3723 107.238 63.9015 107.171 64.4253L112.206 65.0671C112.298 64.3318 112.346 63.5882 112.346 62.838H107.272ZM70.1729 41.0884C80.7288 41.0884 90.1654 43.7163 96.8782 47.8306C103.632 51.972 107.272 57.3511 107.272 62.838H112.346C112.346 54.9077 107.111 48.1404 99.5227 43.4889C91.8904 38.8107 81.5057 36 70.1729 36V41.0884ZM33.0734 62.838C33.0734 57.3511 36.7136 51.972 43.4676 47.8306C50.1804 43.7163 59.617 41.0884 70.1729 41.0884V36C58.8401 36 48.4554 38.8107 40.8231 43.4889C33.2351 48.1404 28 54.9077 28 62.838H33.0734ZM33.1749 64.4253C33.1083 63.9015 33.0734 63.3723 33.0734 62.838H28C28 63.5882 28.0475 64.3318 28.1395 65.0671L33.1749 64.4253ZM30.5367 67.2904H30.6572V62.2019H30.5367V67.2904ZM33.0734 66.4422V64.7462H28V66.4422H33.0734ZM70.1729 88.1918C59.617 88.1918 50.1804 85.5642 43.4676 81.4496C36.7136 77.3086 33.0734 71.9291 33.0734 66.4422H28C28 74.3725 33.2351 81.1401 40.8231 85.7916C48.4554 90.4698 58.8401 93.2802 70.1729 93.2802V88.1918ZM107.272 66.4422C107.272 71.9291 103.632 77.3086 96.8782 81.4496C90.1654 85.5642 80.7288 88.1918 70.1729 88.1918V93.2802C81.5057 93.2802 91.8904 90.4698 99.5227 85.7916C107.111 81.1401 112.346 74.3725 112.346 66.4422H107.272ZM107.272 64.7462V66.4422H112.346V64.7462H107.272ZM109.689 67.2904H109.809V62.2019H109.689V67.2904Z" fill="#979797"/>
<path d="M109.809 66.4427C109.809 79.86 92.0651 90.7365 70.1733 90.7365C48.2814 90.7365 30.5371 79.86 30.5371 66.4427V62.5205H109.809V66.4427Z" fill="#F5F3F3"/>
<path d="M109.809 62.8026C109.809 76.2195 92.0651 87.0964 70.1733 87.0964C48.2814 87.0964 30.5371 76.2195 30.5371 62.8026C30.5371 49.3853 48.2814 38.5088 70.1733 38.5088C92.0651 38.5088 109.809 49.3853 109.809 62.8026Z" fill="#112A46"/>
</g>
<path d="M39.6963 52.0567L40.2677 35.8051C40.2677 35.8051 41.8572 32.1452 43.6248 30.3879C45.2915 28.731 46.1439 28.0696 48.7201 27.1707C51.2963 26.2717 53.4448 26.241 56.5059 26.2717C60.5384 26.3122 63.4345 26.7922 66.7202 27.7384C70.0059 28.6846 76.5166 30.7046 81.8869 34.0072C88.0685 37.8088 91.742 40.4647 95.4345 46.6868C97.2182 49.6926 98.157 51.5389 98.8154 54.9664C99.9107 60.6674 99.8631 66.5105 98.8155 71.1707C98.124 74.2464 96.9049 75.1699 94.8631 77.5814C92.8213 79.9929 84.5774 84.5599 80.4345 85.1277C77.7202 85.4995 67.744 86.4524 62.1488 84.5599C59.4583 83.6501 54.651 80.1296 51.8867 75.5943C50.3153 73.0158 48.8187 68.2485 46.482 63.7191C44.0672 59.0374 39.6963 52.0567 39.6963 52.0567Z" fill="#F8ECE1"/>
<path d="M53.3572 57.1116C51.4048 54.746 46.3334 48.4062 46.3334 48.4062V50.3224C46.3334 51.86 47.3915 53.3206 47.9762 54.2966C49.762 57.2772 50.881 59.0278 51.4048 60.1159C51.9286 61.2041 54.4762 67.7095 54.4762 67.7095C54.4762 67.7095 54.7619 65.06 54.9286 63.0256C55.0953 60.9912 54.6672 58.6987 53.3572 57.1116Z" fill="#691806"/>
<path d="M93.1426 68.3721C93.1426 68.3721 91.9946 70.146 89.8331 71.8968C87.6426 73.671 87.2854 73.6237 84.214 74.9484C81.1426 76.2731 78.8331 75.0903 77.1664 74.3334C75.4997 73.5764 78.1147 75.5403 79.3331 76.2495C80.5434 76.954 80.6664 77.6452 80.6664 77.6452C80.6664 77.6452 80.7854 77.9291 80.3331 78.4022C79.8807 78.8753 79.3331 79.2774 79.3331 79.2774C79.3331 79.2774 79.714 80.2237 83.2378 78.7807C87.8817 76.8792 90.1571 74.7592 90.7616 73.9785C92.8868 71.2344 93.1426 68.3721 93.1426 68.3721Z" fill="#691806"/>
<path fill-rule="evenodd" clip-rule="evenodd" d="M40.2677 35.8051C39.6963 37.2646 38.762 49.5184 39.6963 52.0567C40.1863 53.3872 41.3634 55.2409 42.7206 57.378C43.953 59.318 45.333 61.4914 46.482 63.7191C47.6234 65.932 48.5649 68.2017 49.412 70.2451C50.2991 72.3842 51.083 74.2757 51.8868 75.5943C54.651 80.1296 59.4583 83.6501 62.1488 84.5599C67.744 86.4524 77.7202 85.4995 80.4345 85.1277C84.5774 84.5599 92.8213 79.9929 94.8631 77.5814C95.205 77.1774 95.524 76.8154 95.8211 76.4776C97.2985 74.8 98.2399 73.7312 98.8155 71.1707C99.8631 66.5105 99.9107 60.6674 98.8154 54.9664C98.157 51.5389 97.2182 49.6926 95.4345 46.6868C91.742 40.4647 88.0685 37.8088 81.8869 34.0072C76.5166 30.7046 70.0059 28.6846 66.7202 27.7384C63.4345 26.7922 60.5384 26.3122 56.5059 26.2717C53.4449 26.241 51.2963 26.2717 48.7201 27.1707C46.1439 28.0696 45.2915 28.731 43.6249 30.3879C41.8572 32.1452 40.8391 34.3455 40.2677 35.8051ZM47.601 33.5341C46.5058 34.4577 45.6249 36.6282 45.6249 39.6846C45.6249 44.1183 49.4634 48.4253 51.8639 51.1186C52.5753 51.9173 53.161 52.5741 53.482 53.0502C54.8868 55.132 56.2202 58.1599 56.5298 59.6502C56.7774 60.8425 57.1488 62.8438 57.1488 62.8438C57.1488 62.8438 55.301 58.6567 55.0534 58.1836C53.3449 54.9191 48.8391 50.5191 48.8391 50.5191L45.6249 46.5212C45.6249 46.5212 44.9525 50.0388 45.6249 51.5599C46.0134 52.4384 46.802 53.8059 47.7025 55.367C48.3606 56.5089 49.0791 57.7545 49.7439 58.9879C51.1682 61.6291 52.1953 64.3392 53.1449 66.843C54.3787 70.0977 55.4801 73.0035 57.1488 74.9556C59.6616 77.8951 62.3354 79.1536 66.1012 80.0889C70.3869 81.1535 80.4107 80.5621 84.8631 78.7406C89.2568 76.9432 92.3276 74.0259 93.1668 70.7614C94.006 67.4969 94.2917 65.0911 94.2917 65.0911C94.2917 65.0911 92.2678 69.0474 89.6726 71.0997C87.3393 72.9449 85.5629 73.7473 83.2202 74.3642C80.8699 74.9831 77.006 74.0803 77.006 74.0803C77.006 74.0803 81.0961 73.4781 83.2202 72.5427C85.6651 71.4659 86.313 71.0462 88.2202 69.1836C91.0472 66.4228 92.2679 64.1922 92.9821 62.276C93.8218 60.0236 94.0365 57.4879 93.4583 55.1556C92.6239 51.7895 91.1852 49.3867 88.9107 46.7578C87.0298 44.5837 83.27 41.7247 79.6012 39.1879C75.7999 36.5594 72.0774 35.0766 70.1964 34.3384C66.2129 32.775 60.9583 31.4474 58.7917 31.2158C55.8241 30.8986 53.273 31.0448 52.2201 31.2158C49.8858 31.595 48.821 32.4989 47.7891 33.375C47.7263 33.4282 47.6639 33.4813 47.601 33.5341Z" fill="#621706"/>
<path d="M87.1827 54.9358C87.8269 53.3922 87.8017 50.7014 87.8017 50.7014C87.8017 50.7014 86.8638 52.6347 86.1351 53.8003C85.543 54.7473 84.4922 56.1422 84.4922 56.1422C84.4922 56.1422 82.6343 52.1403 82.0875 49.4003C81.7186 47.5518 81.6113 44.5981 81.6113 44.5981C81.6113 44.5981 81.0958 47.5238 81.2303 49.4003C81.4012 51.7853 81.9818 53.0749 82.8256 55.3143C83.3829 56.7936 83.8435 57.5625 84.4922 59.0046C85.1359 60.4356 85.7511 61.151 86.1351 62.6712C86.6783 64.8217 86.1351 68.3487 86.1351 68.3487C86.1351 68.3487 82.5562 70.9882 79.8732 71.7078C78.1027 72.1828 77.0382 72.1393 75.2065 72.2282C73.7856 72.2973 71.5637 72.2282 71.5637 72.2282C71.5637 72.2282 71.8838 70.6386 72.2541 69.6734C72.9261 67.922 73.432 66.8943 74.7779 65.5809C75.5607 64.817 77.0398 63.925 77.0398 63.925C77.0398 63.925 76.1957 63.874 75.6589 63.925C74.8193 64.0049 74.4053 64.5003 73.5637 64.4454C72.7263 64.3909 71.5637 63.6648 71.5637 63.6648L72.7779 65.5809C72.7779 65.5809 71.2642 67.1562 70.5637 68.3487C69.8464 69.5695 69.2065 71.7078 69.2065 71.7078C69.2065 71.7078 66.9216 71.1964 65.5875 70.5487C64.0133 69.7842 63.1194 69.2381 61.9446 67.9465C60.0287 65.84 60.1873 63.8713 59.2065 61.2046C58.2125 58.5017 58.3109 56.7138 56.897 54.2024C55.7209 52.1135 53.0636 49.4003 53.0636 49.4003C53.0636 49.4003 56.2342 50.0784 58.0637 49.4003C58.8514 49.1083 59.9446 48.3594 59.9446 48.3594C59.9446 48.3594 59.104 52.0789 59.9446 54.2024C60.5228 55.6631 61.2158 56.3475 62.3238 57.4418L62.3732 57.4906C63.3425 58.4481 65.1589 59.596 65.1589 59.596C65.1589 59.596 63.4083 58.0819 62.6827 56.8282C61.9879 55.6278 61.7633 54.8359 61.5398 53.4691C61.2168 51.4934 61.6549 50.3402 61.9446 48.3594C62.2622 46.1878 63.1589 42.8712 63.1589 42.8712C63.1589 42.8712 64.6504 42.7523 65.5875 42.5637C66.505 42.379 67.897 41.925 67.897 41.925C67.897 41.925 69.4895 43.0988 70.5637 43.7702C72.1447 44.7583 73.3244 44.852 74.7779 46.0175C75.7707 46.8136 77.0398 48.3594 77.0398 48.3594C77.0398 48.3594 76.5363 46.5098 75.8256 45.5444C74.6636 43.9659 73.08 44.1181 71.5637 42.8712C70.5708 42.0549 69.2065 40.5766 69.2065 40.5766C69.2065 40.5766 70.1226 39.6913 70.5637 39.0153C71.0983 38.1959 71.5637 36.7207 71.5637 36.7207L72.7779 37.2411C72.7779 37.2411 78.7249 40.4838 82.0875 43.1788C85.0864 45.5823 87.0401 46.8261 89.1351 50.039C90.4832 52.1065 91.4344 53.3274 91.8017 55.7637C92.1017 57.7531 91.9544 58.9701 91.3732 60.8971C90.6714 63.2236 88.1351 66.2196 88.1351 66.2196C88.1351 66.2196 87.649 63.6436 87.1827 62.0325C86.6584 60.2212 85.5398 57.4906 85.5398 57.4906C85.5398 57.4906 86.7262 56.0294 87.1827 54.9358Z" fill="#B32D2D"/>
<path d="M60.8482 35.8217C59.3033 33.9517 55.4911 32.6519 55.4911 32.6519C55.4911 32.6519 59.9269 32.753 62.6815 33.3615C65.8898 34.0703 70.5625 36.2949 70.5625 36.2949C70.5625 36.2949 69.2679 38.655 67.8958 39.583C66.2348 40.7065 62.8958 40.7895 62.8958 40.7895C62.8958 40.7895 62.1869 37.4422 60.8482 35.8217Z" fill="#B32D2D"/>
<path d="M50.7054 40.789C49.1816 39.922 47.4435 37.7138 47.4435 37.7138C47.4435 37.7138 47.1683 41.2047 48.0149 43.1783C48.9064 45.256 49.7968 46.5576 51.8483 47.531C53.6349 48.3788 54.9935 48.5495 56.8959 48.0041C58.5888 47.5188 59.7491 46.9658 60.5864 45.4256C61.3745 43.976 61.2227 42.8199 60.8483 41.2148C60.5825 40.0752 60.232 39.4727 59.5864 38.4944C58.3233 36.5804 57.164 35.6708 55.0626 34.7331C53.3659 33.976 51.134 33.512 50.3959 33.7869L50.3611 33.7999C49.6478 34.0653 49.344 34.1785 49.0626 34.9933C48.7826 35.8054 50.0392 37.5206 51.0735 38.932L51.134 39.0148C52.0702 40.2932 53.9673 41.9245 53.9673 41.9245C53.9673 41.9245 51.8768 41.4555 50.7054 40.789Z" fill="#B32D2D"/>
<path d="M77.864 54.8268C77.658 53.2996 77.3356 52.4075 76.4592 51.1365C75.6497 49.9624 73.2211 48.6491 72.5306 48.2978C71.8402 47.9464 68.5306 48.0611 67.7687 48.2978C66.7894 48.6018 66.0926 49.8588 65.864 50.8526C65.6735 51.6805 65.6426 53.8095 65.864 54.5429C66.1889 55.6194 66.515 56.2013 67.1973 57.0977C68.3358 58.5935 69.2832 59.3803 71.0783 59.9601C72.4782 60.4123 73.4376 60.6407 74.8402 60.1967C76.2085 59.7634 77.1149 59.2192 77.7211 57.9257C78.2358 56.8275 78.0259 56.0275 77.864 54.8268Z" fill="#F8ECE1"/>
<path fill-rule="evenodd" clip-rule="evenodd" d="M76.4592 51.1365C77.3356 52.4075 77.658 53.2996 77.864 54.8268C77.8836 54.9728 77.9041 55.1129 77.9238 55.2484C78.0662 56.2265 78.1732 56.961 77.7211 57.9257C77.1149 59.2192 76.2085 59.7634 74.8402 60.1967C73.4376 60.6407 72.4782 60.4123 71.0783 59.9601C69.2832 59.3803 68.3358 58.5935 67.1973 57.0977C66.515 56.2013 66.1889 55.6194 65.864 54.5429C65.6426 53.8095 65.6735 51.6805 65.864 50.8526C66.0926 49.8588 66.7894 48.6018 67.7687 48.2978C68.5306 48.0611 71.8402 47.9464 72.5306 48.2978C73.2211 48.6491 75.6497 49.9624 76.4592 51.1365ZM75.9646 50.9755C76.7461 51.9048 77.0335 52.5569 77.2171 53.6733C77.2347 53.7801 77.2529 53.8825 77.2705 53.9816C77.3975 54.6966 77.4928 55.2336 77.0897 55.9388C76.5493 56.8845 75.7412 57.2823 74.5211 57.599C73.2706 57.9236 72.4153 57.7566 71.1671 57.4261C69.5666 57.0022 68.722 56.4271 67.7069 55.3335C67.0986 54.6782 66.8078 54.2528 66.5181 53.4658C66.3207 52.9297 66.3483 51.3733 66.5181 50.7679C66.7219 50.0415 67.3432 49.1225 68.2164 48.9003C68.8956 48.7273 71.8464 48.6434 72.462 48.9003C73.0776 49.1571 75.2429 50.1172 75.9646 50.9755Z" fill="#621706"/>
<path d="M74.2139 53.2953C74.1336 52.8101 74.0079 52.5267 73.6662 52.1229C73.3507 51.7499 72.4039 51.3327 72.1348 51.2211C71.8656 51.1095 70.5754 51.1459 70.2784 51.2211C69.8967 51.3177 69.6251 51.717 69.5359 52.0327C69.4617 52.2958 69.4496 52.9721 69.5359 53.205C69.6626 53.5471 69.7897 53.7319 70.0557 54.0167C70.4995 54.4919 70.8688 54.7418 71.5686 54.926C72.1143 55.0696 72.4883 55.1422 73.0351 55.0012C73.5685 54.8636 73.9218 54.6907 74.1582 54.2797C74.3588 53.9308 74.277 53.6767 74.2139 53.2953Z" fill="#621706"/>
<path d="M126.184 81.472C126 82.176 125 82.176 124.816 81.472L123.821 77.6835C123.756 77.4365 123.564 77.2435 123.316 77.1788L119.528 76.1844C118.824 75.9997 118.824 75.0003 119.528 74.8156L123.316 73.8212C123.564 73.7565 123.756 73.5635 123.821 73.3165L124.816 69.528C125 68.824 126 68.824 126.184 69.528L127.179 73.3165C127.244 73.5635 127.436 73.7565 127.684 73.8212L131.472 74.8156C132.176 75.0003 132.176 75.9997 131.472 76.1844L127.684 77.1788C127.436 77.2435 127.244 77.4365 127.179 77.6835L126.184 81.472Z" fill="white"/>
<path d="M7.18445 21.472C6.99965 22.176 6.00033 22.176 5.81552 21.472L4.82128 17.6835C4.75642 17.4365 4.56352 17.2435 4.31643 17.1788L0.52802 16.1844C-0.176007 15.9997 -0.176007 15.0003 0.52802 14.8156L4.31643 13.8212C4.56352 13.7565 4.75642 13.5635 4.82128 13.3165L5.81552 9.52797C6.00033 8.82401 6.99965 8.82401 7.18445 9.52797L8.17871 13.3165C8.24356 13.5635 8.43646 13.7565 8.68355 13.8212L12.472 14.8156C13.176 15.0003 13.176 15.9997 12.472 16.1844L8.68355 17.1788C8.43646 17.2435 8.24356 17.4365 8.17871 17.6835L7.18445 21.472Z" fill="white"/>
<path d="M38.9739 8.63449C38.8459 9.12184 38.1541 9.12184 38.0261 8.63449L37.3378 6.01168C37.2929 5.84067 37.1594 5.70707 36.9883 5.66222L34.3656 4.97384C33.8781 4.84595 33.8781 4.15406 34.3656 4.02617L36.9883 3.33778C37.1594 3.29294 37.2929 3.15933 37.3378 2.98833L38.0261 0.365515C38.1541 -0.121838 38.8459 -0.121838 38.9739 0.365515L39.6622 2.98833C39.7071 3.15933 39.8406 3.29294 40.0117 3.33778L42.6345 4.02617C43.1218 4.15406 43.1218 4.84595 42.6345 4.97384L40.0117 5.66222C39.8406 5.70707 39.7071 5.84067 39.6622 6.01168L38.9739 8.63449Z" fill="white"/>
</svg>
